<svg width="200" height="170" viewBox="0 0 200 170" xmlns="http://www.w3.org/2000/svg">
  <path d="M89 4.79995L16.2 34.9C12.1 36.6 12.2 42.3 16.3 44L89.5 73C95.9 75.6 103.1 75.6 109.5 73L182.7 44C186.8 42.4 186.8 36.6 182.8 34.9L109.8 4.79995C103.2 1.99995 95.7 1.99995 89 4.79995Z" fill="#FCB400" />
  <path d="M105.9 88.9V161.4C105.9 164.8 109.4 167.2 112.6 165.9L194.2 134.2C196.1 133.5 197.3 131.7 197.3 129.7V57.2C197.3 53.8 193.8 51.4 190.6 52.7L109 84.3C107.1 85.1 105.9 86.9 105.9 88.9" fill="#18BFFF" />
  <path d="M86.9 92.6L62.7 104.3L60.2 105.5L9.09995 130C5.89995 131.6 1.69995 129.2 1.69995 125.6V57.5C1.69995 56.2 2.39995 55.1 3.29995 54.2C3.69995 53.8 4.09995 53.5 4.49995 53.3C5.69995 52.6 7.49995 52.4 8.89995 53L86.4 83.7C90.4 85.2 90.7 90.8 86.9 92.6" fill="#F82B60" />
  <path d="M86.9 92.6L62.7001 104.3L3.30005 54.3C3.70005 53.9 4.10005 53.6 4.50005 53.4C5.70005 52.7 7.50005 52.5 8.90005 53.1L86.4 83.8C90.4 85.2 90.7 90.8 86.9 92.6Z" fill="#BA1E45" />
  <path d="M68.7576 161V111H77.2424V161H68.7576ZM48 140.242V131.758H98V140.242H48Z" fill="#F82B60" />
</svg>
